<?xml version="1.0" encoding="UTF-8" standalone="no" ?>
<!DOCTYPE svg PUBLIC "-//W3C//DTD SVG 1.1//EN" "http://www.w3.org/Graphics/SVG/1.1/DTD/svg11.dtd">
<svg xmlns="http://www.w3.org/2000/svg" xmlns:xlink="http://www.w3.org/1999/xlink" version="1.1" width="640" height="480" viewBox="0 0 640 480" xml:space="preserve">
<desc>Created with Fabric.js 3.6.6</desc>
<defs>
</defs>
<g transform="matrix(1 0 0 1 321 240)"  >
<g style=""   >
		<g transform="matrix(0 0.79 -0.79 0 -145.67 -145.94)"  >
<line style="stroke: rgb(0,0,0); stroke-width: 5; stroke-dasharray: none; stroke-linecap: butt; stroke-dashoffset: 0; stroke-linejoin: miter; stroke-miterlimit: 4; fill: rgb(0,0,0); fill-rule: nonzero; opacity: 1;"  x1="0" y1="-62.098711741871114" x2="0" y2="62.098711741871114" />
</g>
		<g transform="matrix(0.79 0 0 0.79 -95.55 -100.17)"  >
<line style="stroke: rgb(0,0,0); stroke-width: 5; stroke-dasharray: none; stroke-linecap: butt; stroke-dashoffset: 0; stroke-linejoin: miter; stroke-miterlimit: 4; fill: rgb(0,0,0); fill-rule: nonzero; opacity: 1;"  x1="0" y1="-62.098711741871114" x2="0" y2="62.098711741871114" />
</g>
		<g transform="matrix(0 0.79 -0.79 0 -46.37 -49.43)"  >
<line style="stroke: rgb(0,0,0); stroke-width: 5; stroke-dasharray: none; stroke-linecap: butt; stroke-dashoffset: 0; stroke-linejoin: miter; stroke-miterlimit: 4; fill: rgb(0,0,0); fill-rule: nonzero; opacity: 1;"  x1="0" y1="-62.098711741871114" x2="0" y2="62.098711741871114" />
</g>
		<g transform="matrix(0.79 0 0 0.79 2.75 -1.87)"  >
<line style="stroke: rgb(0,0,0); stroke-width: 5; stroke-dasharray: none; stroke-linecap: butt; stroke-dashoffset: 0; stroke-linejoin: miter; stroke-miterlimit: 4; fill: rgb(0,0,0); fill-rule: nonzero; opacity: 1;"  x1="0" y1="-62.098711741871114" x2="0" y2="62.098711741871114" />
</g>
		<g transform="matrix(0 0.79 -0.79 0 51.93 48.85)"  >
<line style="stroke: rgb(0,0,0); stroke-width: 5; stroke-dasharray: none; stroke-linecap: butt; stroke-dashoffset: 0; stroke-linejoin: miter; stroke-miterlimit: 4; fill: rgb(0,0,0); fill-rule: nonzero; opacity: 1;"  x1="0" y1="-62.098711741871114" x2="0" y2="62.098711741871114" />
</g>
		<g transform="matrix(0.79 0 0 0.79 101.83 94.85)"  >
<line style="stroke: rgb(0,0,0); stroke-width: 5; stroke-dasharray: none; stroke-linecap: butt; stroke-dashoffset: 0; stroke-linejoin: miter; stroke-miterlimit: 4; fill: rgb(0,0,0); fill-rule: nonzero; opacity: 1;"  x1="0" y1="-62.098711741871114" x2="0" y2="62.098711741871114" />
</g>
		<g transform="matrix(0 0.79 -0.79 0 151.01 145.59)"  >
<line style="stroke: rgb(0,0,0); stroke-width: 5; stroke-dasharray: none; stroke-linecap: butt; stroke-dashoffset: 0; stroke-linejoin: miter; stroke-miterlimit: 4; fill: rgb(0,0,0); fill-rule: nonzero; opacity: 1;"  x1="0" y1="-62.098711741871114" x2="0" y2="62.098711741871114" />
</g>
</g>
</g>
<g transform="matrix(1 0 0 1 69.5 32)"  >
<line style="stroke: rgb(0,0,0); stroke-width: 2; stroke-dasharray: none; stroke-linecap: butt; stroke-dashoffset: 0; stroke-linejoin: miter; stroke-miterlimit: 4; fill: rgb(0,0,0); fill-rule: nonzero; opacity: 1;" vector-effect="non-scaling-stroke"  x1="0" y1="0" x2="0" y2="0" />
</g>
<g transform="matrix(1 0 0 1 69.5 32)"  >
<line style="stroke: rgb(0,0,0); stroke-width: 2; stroke-dasharray: none; stroke-linecap: butt; stroke-dashoffset: 0; stroke-linejoin: miter; stroke-miterlimit: 4; fill: rgb(0,0,0); fill-rule: nonzero; opacity: 1;" vector-effect="non-scaling-stroke"  x1="0" y1="0" x2="0" y2="0" />
</g>
<g transform="matrix(1 -0.02 0.02 1 323.52 101.98)"  >
<line style="stroke: rgb(0,0,0); stroke-width: 4; stroke-dasharray: 25 25; stroke-linecap: square; stroke-dashoffset: 0; stroke-linejoin: miter; stroke-miterlimit: 4; fill: rgb(0,0,0); fill-rule: nonzero; opacity: 1;" vector-effect="non-scaling-stroke"  x1="-315" y1="-6" x2="315" y2="6" />
</g>
<g transform="matrix(1 -0.02 0.02 1 324.52 199.96)"  >
<line style="stroke: rgb(0,0,0); stroke-width: 4; stroke-dasharray: 25 25; stroke-linecap: square; stroke-dashoffset: 0; stroke-linejoin: miter; stroke-miterlimit: 4; fill: rgb(0,0,0); fill-rule: nonzero; opacity: 1;" vector-effect="non-scaling-stroke"  x1="-315" y1="-6" x2="315" y2="6" />
</g>
<g transform="matrix(1 -0.02 0.02 1 312.52 281.96)"  >
<line style="stroke: rgb(0,0,0); stroke-width: 4; stroke-dasharray: 25 25; stroke-linecap: square; stroke-dashoffset: 0; stroke-linejoin: miter; stroke-miterlimit: 4; fill: rgb(0,0,0); fill-rule: nonzero; opacity: 1;" vector-effect="non-scaling-stroke"  x1="-315" y1="-6" x2="315" y2="6" />
</g>
<g transform="matrix(1 -0.02 0.02 1 317.52 392.96)"  >
<line style="stroke: rgb(0,0,0); stroke-width: 4; stroke-dasharray: 25 25; stroke-linecap: square; stroke-dashoffset: 0; stroke-linejoin: miter; stroke-miterlimit: 4; fill: rgb(0,0,0); fill-rule: nonzero; opacity: 1;" vector-effect="non-scaling-stroke"  x1="-315" y1="-6" x2="315" y2="6" />
</g>
</svg>